<svg width="5000" height="5000" viewBox="0 0 5000 5000" fill="none" xmlns="http://www.w3.org/2000/svg">
  <path d="M3946.46 3146.27C4123.51 2920.77 4170.8 2662.4 4052.07 2569.17C3933.34 2475.95 3693.56 2583.18 3516.5 2808.68C3339.45 3034.18 3292.16 3292.55 3410.89 3385.78C3529.62 3479 3769.4 3371.77 3946.46 3146.27Z" fill="#F1F1F1" />
  <path d="M3894.77 2203.33C3776.34 2321.73 3618.82 2385.7 3486.79 2485.87C3356.53 2584.71 3261.99 2716.61 3184.1 2858.79C3041.46 3119.16 2952.9 3414.39 2758.9 3644.18C2433.97 4029.06 1867.34 4107.21 1451.63 3820.85C915.102 3451.24 820.044 2609.23 1009.64 2032.51C1119.26 1699.08 1339.73 1517.38 1668.24 1413.26C2053.81 1291.05 2444.29 1166.66 2836.42 1067.42C3196.72 976.232 3630.59 953.457 3908.05 1248.66C4148.08 1504.05 4143.89 1954.26 3894.77 2203.33Z" fill="#F1F1F1" />
  <path d="M794.029 2391.5H2812.01C2819.01 2391.5 2825.72 2394.28 2830.67 2399.22C2835.62 2404.17 2838.39 2410.88 2838.39 2417.88V3218.43C2838.39 3225.43 2835.62 3232.14 2830.67 3237.08C2825.72 3242.03 2819.01 3244.81 2812.02 3244.81H794.028C787.032 3244.81 780.322 3242.03 775.375 3237.08C770.428 3232.14 767.648 3225.43 767.648 3218.43V2417.88C767.648 2410.88 770.428 2404.17 775.375 2399.22C780.323 2394.28 787.033 2391.5 794.029 2391.5Z" fill="#A4A4A4" />
  <path d="M1017.76 3116.07V3586.87L1560.28 3044.35C1560.28 3044.35 1028.8 3116.07 1017.76 3116.07Z" fill="#A4A4A4" />
  <path d="M1885.78 2645.29H1047.18C1037.42 2645.29 1028.07 2641.41 1021.17 2634.51C1014.27 2627.61 1010.4 2618.26 1010.4 2608.5C1010.4 2598.75 1014.27 2589.39 1021.17 2582.49C1028.07 2575.6 1037.42 2571.72 1047.18 2571.72H1885.78C1895.54 2571.72 1904.89 2575.6 1911.79 2582.49C1918.69 2589.39 1922.57 2598.75 1922.57 2608.5C1922.57 2618.26 1918.69 2627.61 1911.79 2634.51C1904.89 2641.41 1895.54 2645.29 1885.78 2645.29ZM1031.07 2744.59H2586.03C2591.51 2744.59 2596.76 2746.77 2600.63 2750.64C2604.51 2754.51 2606.69 2759.77 2606.69 2765.25C2606.69 2767.96 2606.15 2770.65 2605.11 2773.16C2604.08 2775.66 2602.55 2777.94 2600.63 2779.86C2598.72 2781.78 2596.44 2783.3 2593.93 2784.34C2591.43 2785.38 2588.74 2785.91 2586.03 2785.91H1031.06C1028.35 2785.91 1025.67 2785.38 1023.16 2784.34C1020.65 2783.3 1018.37 2781.78 1016.46 2779.86C1014.54 2777.94 1013.02 2775.66 1011.98 2773.16C1010.94 2770.65 1010.4 2767.96 1010.4 2765.25C1010.4 2759.77 1012.58 2754.51 1016.46 2750.64C1020.33 2746.77 1025.59 2744.59 1031.07 2744.59ZM2586.03 2865.97H1031.06C1025.59 2865.95 1020.34 2863.77 1016.47 2859.9C1012.6 2856.03 1010.42 2850.78 1010.4 2845.31C1010.42 2839.83 1012.6 2834.59 1016.47 2830.71C1020.34 2826.84 1025.59 2824.66 1031.06 2824.65H2586.03C2591.5 2824.66 2596.75 2826.84 2600.62 2830.71C2604.49 2834.59 2606.67 2839.83 2606.69 2845.31C2606.67 2850.78 2604.49 2856.03 2600.62 2859.9C2596.75 2863.77 2591.5 2865.95 2586.03 2865.97ZM2196.39 3049.87H2282.18C2282.73 3049.87 2283.25 3050.08 2283.64 3050.47C2284.03 3050.86 2284.24 3051.38 2284.24 3051.93V3128.73C2284.24 3129.27 2284.03 3129.8 2283.64 3130.18C2283.25 3130.57 2282.73 3130.79 2282.18 3130.79H2196.39C2195.84 3130.79 2195.32 3130.57 2194.93 3130.18C2194.55 3129.8 2194.33 3129.27 2194.33 3128.72V3051.93C2194.33 3051.38 2194.55 3050.86 2194.93 3050.47C2195.32 3050.08 2195.84 3049.87 2196.39 3049.87ZM2359.86 3049.87H2445.65C2446.19 3049.87 2446.72 3050.08 2447.1 3050.47C2447.49 3050.86 2447.71 3051.38 2447.71 3051.93V3128.73C2447.71 3129.27 2447.49 3129.8 2447.1 3130.18C2446.72 3130.57 2446.19 3130.79 2445.64 3130.79H2359.86C2359.32 3130.79 2358.79 3130.57 2358.41 3130.18C2358.02 3129.8 2357.8 3129.27 2357.8 3128.73V3051.93C2357.8 3051.38 2358.02 3050.86 2358.41 3050.47C2358.79 3050.08 2359.32 3049.87 2359.86 3049.87Z" fill="white" />
  <path d="M2609.12 3049.87H2523.33C2522.19 3049.87 2521.27 3050.79 2521.27 3051.93V3128.73C2521.27 3129.86 2522.19 3130.79 2523.33 3130.79H2609.12C2610.26 3130.79 2611.18 3129.86 2611.18 3128.73V3051.93C2611.18 3050.79 2610.26 3049.87 2609.12 3049.87Z" fill="white" />
  <path d="M4205.97 2266.44L2187.99 2266.44C2180.99 2266.44 2174.28 2263.66 2169.33 2258.72C2164.38 2253.77 2161.61 2247.06 2161.61 2240.06V1439.51C2161.61 1436.05 2162.29 1432.62 2163.61 1429.42C2164.94 1426.21 2166.88 1423.31 2169.33 1420.86C2171.78 1418.41 2174.69 1416.46 2177.89 1415.14C2181.09 1413.81 2184.52 1413.13 2187.98 1413.13L4205.97 1413.13C4209.44 1413.13 4212.87 1413.81 4216.07 1415.14C4219.27 1416.46 4222.18 1418.41 4224.62 1420.86C4227.07 1423.31 4229.02 1426.21 4230.34 1429.42C4231.67 1432.62 4232.35 1436.05 4232.35 1439.51V2240.06C4232.35 2247.06 4229.57 2253.77 4224.62 2258.72C4219.68 2263.66 4212.97 2266.44 4205.97 2266.44Z" fill="#969696" />
  <path d="M3982.24 2137.71V2608.5L3439.72 2065.99C3439.72 2065.99 3971.2 2137.71 3982.24 2137.71Z" fill="#969696" />
  <path d="M2333.6 1491.15H2404.16C2404.71 1491.15 2405.23 1491.37 2405.62 1491.76C2406 1492.14 2406.22 1492.67 2406.22 1493.21V1556.31C2406.22 1556.86 2406 1557.38 2405.62 1557.77C2405.23 1558.15 2404.71 1558.37 2404.16 1558.37H2333.6C2333.05 1558.37 2332.53 1558.15 2332.14 1557.77C2331.76 1557.38 2331.54 1556.86 2331.54 1556.31V1493.21C2331.54 1492.67 2331.76 1492.14 2332.14 1491.76C2332.53 1491.37 2333.05 1491.15 2333.6 1491.15Z" fill="white" />
  <path d="M2539.95 1491.15H2469.39C2468.25 1491.15 2467.33 1492.08 2467.33 1493.21V1556.31C2467.33 1557.45 2468.25 1558.37 2469.39 1558.37H2539.95C2541.09 1558.37 2542.02 1557.45 2542.02 1556.31V1493.21C2542.02 1492.08 2541.09 1491.15 2539.95 1491.15Z" fill="white" />
  <path d="M2605.17 1491.15H2675.75C2676.3 1491.15 2676.82 1491.37 2677.21 1491.76C2677.59 1492.14 2677.81 1492.67 2677.81 1493.21V1556.31C2677.81 1556.86 2677.59 1557.38 2677.21 1557.77C2676.82 1558.15 2676.3 1558.37 2675.75 1558.37H2605.18C2604.63 1558.37 2604.1 1558.15 2603.72 1557.77C2603.33 1557.38 2603.11 1556.86 2603.11 1556.31V1493.21C2603.11 1492.67 2603.33 1492.14 2603.72 1491.76C2604.1 1491.37 2604.63 1491.15 2605.17 1491.15ZM4033.91 1769.46H3080.65C3073.08 1769.46 3065.83 1766.45 3060.48 1761.11C3055.14 1755.76 3052.13 1748.51 3052.13 1740.94C3052.13 1733.38 3055.14 1726.13 3060.48 1720.78C3065.83 1715.43 3073.08 1712.43 3080.65 1712.43H4033.91C4041.47 1712.43 4048.72 1715.43 4054.07 1720.78C4059.42 1726.13 4062.42 1733.38 4062.42 1740.94C4062.42 1748.51 4059.42 1755.76 4054.07 1761.11C4048.72 1766.45 4041.47 1769.46 4033.91 1769.46ZM3316.93 2159.91H2363.68C2359.93 2159.91 2356.22 2159.17 2352.76 2157.74C2349.3 2156.3 2346.16 2154.2 2343.51 2151.55C2340.86 2148.91 2338.76 2145.76 2337.33 2142.3C2335.9 2138.84 2335.16 2135.14 2335.16 2131.39C2335.16 2127.65 2335.9 2123.94 2337.33 2120.48C2338.76 2117.02 2340.86 2113.88 2343.51 2111.23C2346.16 2108.58 2349.3 2106.48 2352.76 2105.05C2356.22 2103.61 2359.93 2102.88 2363.68 2102.88H3316.93C3320.67 2102.88 3324.38 2103.61 3327.84 2105.05C3331.3 2106.48 3334.44 2108.58 3337.09 2111.23C3339.74 2113.88 3341.84 2117.02 3343.27 2120.48C3344.7 2123.94 3345.44 2127.65 3345.44 2131.39C3345.44 2135.14 3344.7 2138.84 3343.27 2142.3C3341.84 2145.76 3339.74 2148.91 3337.09 2151.55C3334.44 2154.2 3331.3 2156.3 3327.84 2157.74C3324.38 2159.17 3320.67 2159.91 3316.93 2159.91Z" fill="white" />
  <path d="M3516.32 2102.88H3400.67C3399.98 2102.88 3399.42 2103.43 3399.42 2104.12V2158.66C3399.42 2159.35 3399.98 2159.91 3400.67 2159.91H3516.32C3517.01 2159.91 3517.56 2159.35 3517.56 2158.66V2104.12C3517.56 2103.43 3517.01 2102.88 3516.32 2102.88Z" fill="white" />
  <path d="M3674.16 2102.88H3558.52C3557.83 2102.88 3557.27 2103.43 3557.27 2104.12V2158.66C3557.27 2159.35 3557.83 2159.91 3558.52 2159.91H3674.16C3674.85 2159.91 3675.41 2159.35 3675.41 2158.66V2104.12C3675.41 2103.43 3674.85 2102.88 3674.16 2102.88Z" fill="white" />
  <path d="M4043.07 1893.71H2464.5C2459.37 1893.71 2454.44 1891.67 2450.82 1888.04C2447.19 1884.41 2445.15 1879.49 2445.15 1874.36C2445.15 1869.23 2447.19 1864.31 2450.82 1860.68C2454.44 1857.05 2459.37 1855.01 2464.5 1855.01H4043.07C4048.2 1855.01 4053.12 1857.05 4056.75 1860.68C4060.38 1864.31 4062.42 1869.23 4062.42 1874.36C4062.42 1879.49 4060.38 1884.41 4056.75 1888.04C4053.12 1891.67 4048.2 1893.71 4043.07 1893.71ZM4043.07 1977.22H2464.5C2459.37 1977.22 2454.44 1975.18 2450.82 1971.55C2447.19 1967.93 2445.15 1963 2445.15 1957.87C2445.15 1952.74 2447.19 1947.82 2450.82 1944.19C2454.44 1940.56 2459.37 1938.52 2464.5 1938.52H4043.07C4048.2 1938.52 4053.12 1940.56 4056.75 1944.19C4060.38 1947.82 4062.42 1952.74 4062.42 1957.87C4062.42 1963 4060.38 1967.93 4056.75 1971.55C4053.12 1975.18 4048.2 1977.22 4043.07 1977.22Z" fill="white" />
</svg>