<svg width="176" height="74" viewBox="0 0 176 74" fill="none" xmlns="http://www.w3.org/2000/svg">
<g filter="url(#filter0_d_0_1883)">
<path fill-rule="evenodd" clip-rule="evenodd" d="M42.0983 34.0983L24 16V48H28.1967H56H60.1967V16L42.0983 34.0983Z" fill="#3A7EF8"/>
</g>
<path d="M73.8567 39V25H76.5367L82.4967 34.88H81.0767L86.9367 25H89.5967L89.6367 39H86.5967L86.5767 29.66H87.1367L82.4567 37.52H80.9967L76.2167 29.66H76.8967V39H73.8567ZM97.0802 39L91.0402 25H94.5402L99.8202 37.4H97.7602L103.12 25H106.34L100.28 39H97.0802ZM120.226 39.24C119.119 39.24 118.099 39.0667 117.166 38.72C116.246 38.36 115.439 37.8533 114.746 37.2C114.066 36.5467 113.533 35.78 113.146 34.9C112.773 34.02 112.586 33.0533 112.586 32C112.586 30.9467 112.773 29.98 113.146 29.1C113.533 28.22 114.073 27.4533 114.766 26.8C115.459 26.1467 116.273 25.6467 117.206 25.3C118.139 24.94 119.166 24.76 120.286 24.76C121.526 24.76 122.639 24.9667 123.626 25.38C124.626 25.7933 125.466 26.3933 126.146 27.18L124.066 29.1C123.559 28.5667 123.006 28.1733 122.406 27.92C121.806 27.6533 121.153 27.52 120.446 27.52C119.766 27.52 119.146 27.6267 118.586 27.84C118.026 28.0533 117.539 28.36 117.126 28.76C116.726 29.16 116.413 29.6333 116.186 30.18C115.973 30.7267 115.866 31.3333 115.866 32C115.866 32.6533 115.973 33.2533 116.186 33.8C116.413 34.3467 116.726 34.8267 117.126 35.24C117.539 35.64 118.019 35.9467 118.566 36.16C119.126 36.3733 119.739 36.48 120.406 36.48C121.046 36.48 121.666 36.38 122.266 36.18C122.879 35.9667 123.473 35.6133 124.046 35.12L125.886 37.46C125.126 38.0333 124.239 38.4733 123.226 38.78C122.226 39.0867 121.226 39.24 120.226 39.24ZM122.926 37.04V31.78H125.886V37.46L122.926 37.04ZM127.056 39L133.296 25H136.496L142.756 39H139.356L134.236 26.64H135.516L130.376 39H127.056ZM130.176 36L131.036 33.54H138.236L139.116 36H130.176ZM144.208 39V25H146.888L152.848 34.88H151.428L157.288 25H159.948L159.988 39H156.948L156.928 29.66H157.488L152.808 37.52H151.348L146.568 29.66H147.248V39H144.208ZM166.29 30.64H173.03V33.16H166.29V30.64ZM166.53 36.4H174.15V39H163.31V25H173.89V27.6H166.53V36.4Z" fill="white"/>
<defs>
<filter id="filter0_d_0_1883" x="0" y="-6" width="84.1967" height="80" filterUnits="userSpaceOnUse" color-interpolation-filters="sRGB">
<feFlood flood-opacity="0" result="BackgroundImageFix"/>
<feColorMatrix in="SourceAlpha" type="matrix" values="0 0 0 0 0 0 0 0 0 0 0 0 0 0 0 0 0 0 127 0" result="hardAlpha"/>
<feOffset dy="2"/>
<feGaussianBlur stdDeviation="12"/>
<feComposite in2="hardAlpha" operator="out"/>
<feColorMatrix type="matrix" values="0 0 0 0 0.227451 0 0 0 0 0.494118 0 0 0 0 0.972549 0 0 0 0.96 0"/>
<feBlend mode="normal" in2="BackgroundImageFix" result="effect1_dropShadow_0_1883"/>
<feBlend mode="normal" in="SourceGraphic" in2="effect1_dropShadow_0_1883" result="shape"/>
</filter>
</defs>
</svg>
